<?xml version="1.0" standalone="no"?>
<!DOCTYPE svg PUBLIC "-//W3C//DTD SVG 20010904//EN"
 "http://www.w3.org/TR/2001/REC-SVG-20010904/DTD/svg10.dtd">
<svg version="1.0" xmlns="http://www.w3.org/2000/svg"
 width="600.000000pt" height="600.000000pt" viewBox="0 0 600.000000 600.000000"
 preserveAspectRatio="xMidYMid meet">
<metadata>
Created by potrace 1.14, written by Peter Selinger 2001-2017
</metadata>
<g transform="translate(0.000000,600.000000) scale(0.100000,-0.100000)"
fill="#000000" stroke="none">
<path d="M2702 3655 c-318 -69 -536 -302 -571 -610 -35 -308 118 -588 394
-720 108 -52 175 -66 330 -72 121 -4 153 -2 230 16 144 35 295 122 364 211
l19 26 -105 92 -104 92 -46 -40 c-208 -183 -557 -142 -690 81 -104 175 -72
422 72 546 131 113 344 141 502 67 29 -14 77 -47 106 -74 l53 -48 105 96 c104
95 106 97 91 121 -25 38 -132 118 -207 156 -106 52 -217 75 -360 74 -66 0
-148 -7 -183 -14z"/>
<path d="M4140 3655 c-155 -32 -268 -92 -381 -205 -140 -139 -202 -289 -202
-490 0 -127 18 -205 75 -320 33 -68 58 -102 127 -171 72 -72 102 -94 181 -132
127 -63 191 -78 346 -84 100 -4 150 -2 215 12 267 54 470 224 557 467 24 67
26 86 26 228 0 142 -2 161 -26 228 -86 240 -290 413 -550 466 -93 19 -276 20
-368 1z m326 -290 c63 -18 163 -83 198 -130 133 -174 122 -428 -26 -576 -192
-192 -549 -154 -685 72 -104 175 -72 420 72 546 113 99 282 133 441 88z"/>
<path d="M830 3530 l0 -130 225 0 225 0 0 -570 0 -570 165 0 165 0 0 570 0
570 225 0 225 0 0 130 0 130 -615 0 -615 0 0 -130z"/>
</g>
</svg>
